{
	"asset":{
		"generator":"Khronos glTF Blender I/O v3.6.27",
		"version":"2.0"
	},
	"extensionsUsed":[
		"KHR_materials_emissive_strength"
	],
	"scene":0,
	"scenes":[
		{
			"name":"Scene",
			"nodes":[
				0,
				1,
				2,
				3,
				4,
				5,
				6,
				7,
				8,
				9
			]
		}
	],
	"nodes":[
		{
			"mesh":0,
			"name":"Window_frame_03",
			"rotation":[
				0.7071068286895752,
				0,
				0,
				0.7071068286895752
			],
			"scale":[
				0.009999999776482582,
				0.009999999776482582,
				0.009999999776482582
			]
		},
		{
			"mesh":1,
			"name":"Window_frame_02",
			"rotation":[
				0.7071068286895752,
				0,
				0,
				0.7071068286895752
			],
			"scale":[
				0.009999999776482582,
				0.009999999776482582,
				0.009999999776482582
			]
		},
		{
			"mesh":2,
			"name":"Window_frame_01",
			"rotation":[
				0.7071068286895752,
				0,
				0,
				0.7071068286895752
			],
			"scale":[
				0.009999999776482582,
				0.009999999776482582,
				0.009999999776482582
			]
		},
		{
			"mesh":3,
			"name":"Shadow_Proxy",
			"rotation":[
				0.7071068286895752,
				0,
				0,
				0.7071068286895752
			],
			"scale":[
				0.009999999776482582,
				0.009999999776482582,
				0.009999999776482582
			]
		},
		{
			"mesh":4,
			"name":"Railing_collider",
			"rotation":[
				0.7071068286895752,
				0,
				0,
				0.7071068286895752
			],
			"scale":[
				0.009999999776482582,
				0.009999999776482582,
				0.009999999776482582
			],
			"translation":[
				11.482156753540039,
				5.553260326385498,
				3.3544905185699463
			]
		},
		{
			"mesh":5,
			"name":"Railing",
			"rotation":[
				0.7071068286895752,
				0,
				0,
				0.7071068286895752
			],
			"scale":[
				0.009999999776482582,
				0.009999999776482582,
				0.009999999776482582
			],
			"translation":[
				11.482156753540039,
				5.553260326385498,
				3.3544909954071045
			]
		},
		{
			"mesh":6,
			"name":"Glass_03",
			"rotation":[
				0.7071068286895752,
				0,
				0,
				0.7071068286895752
			],
			"scale":[
				0.009999999776482582,
				0.009999999776482582,
				0.009999999776482582
			],
			"translation":[
				-0.018336905166506767,
				0.02487914264202118,
				-0.04176398739218712
			]
		},
		{
			"mesh":7,
			"name":"Glass_02",
			"rotation":[
				0.7071068286895752,
				0,
				0,
				0.7071068286895752
			],
			"scale":[
				0.009999999776482582,
				0.009999999776482582,
				0.009999999776482582
			]
		},
		{
			"mesh":8,
			"name":"Glass_01",
			"rotation":[
				0.7071068286895752,
				0,
				0,
				0.7071068286895752
			],
			"scale":[
				0.009999999776482582,
				0.009999999776482582,
				0.009999999776482582
			],
			"translation":[
				0.016483072191476822,
				0,
				0.008638775907456875
			]
		},
		{
			"mesh":9,
			"name":"Base",
			"rotation":[
				0.7071068286895752,
				0,
				0,
				0.7071068286895752
			],
			"scale":[
				0.009999999776482582,
				0.009999999776482582,
				0.009999999776482582
			]
		}
	],
	"materials":[
		{
			"doubleSided":true,
			"name":"Dark.002",
			"pbrMetallicRoughness":{
				"baseColorFactor":[
					0.17877022922039032,
					0.17877022922039032,
					0.17877022922039032,
					1
				],
				"metallicFactor":0,
				"roughnessFactor":0.18446600437164307
			}
		},
		{
			"doubleSided":true,
			"emissiveFactor":[
				1,
				1,
				1
			],
			"extensions":{
				"KHR_materials_emissive_strength":{
					"emissiveStrength":4
				}
			},
			"name":"Emissive.002",
			"pbrMetallicRoughness":{
				"metallicFactor":0
			}
		},
		{
			"doubleSided":true,
			"name":"Shadow_proxy.002",
			"pbrMetallicRoughness":{
				"baseColorFactor":[
					0,
					0,
					0,
					1
				],
				"metallicFactor":0
			}
		},
		{
			"doubleSided":true,
			"name":"Metal",
			"pbrMetallicRoughness":{
				"baseColorFactor":[
					0.800000011920929,
					0.800000011920929,
					0.800000011920929,
					1
				],
				"roughnessFactor":0.20873785018920898
			}
		},
		{
			"doubleSided":true,
			"name":"Glass.002",
			"pbrMetallicRoughness":{
				"baseColorFactor":[
					0.800000011920929,
					0.800000011920929,
					0.800000011920929,
					1
				],
				"metallicFactor":0,
				"roughnessFactor":0.4000000059604645
			}
		},
		{
			"doubleSided":true,
			"name":"White.002",
			"pbrMetallicRoughness":{
				"baseColorFactor":[
					0.8287357091903687,
					0.8287357091903687,
					0.8287357091903687,
					1
				],
				"metallicFactor":0,
				"roughnessFactor":0.30000001192092896
			}
		},
		{
			"doubleSided":true,
			"emissiveFactor":[
				1,
				1,
				1
			],
			"name":"Wall_txture",
			"pbrMetallicRoughness":{
				"metallicFactor":0,
				"roughnessFactor":0.5
			}
		}
	],
	"meshes":[
		{
			"name":"Circle.117",
			"primitives":[
				{
					"attributes":{
						"POSITION":0,
						"NORMAL":1,
						"TEXCOORD_0":2
					},
					"indices":3,
					"material":0
				}
			]
		},
		{
			"name":"Circle.082",
			"primitives":[
				{
					"attributes":{
						"POSITION":4,
						"NORMAL":5,
						"TEXCOORD_0":6
					},
					"indices":7,
					"material":0
				}
			]
		},
		{
			"name":"Circle.095",
			"primitives":[
				{
					"attributes":{
						"POSITION":8,
						"NORMAL":9,
						"TEXCOORD_0":10
					},
					"indices":11,
					"material":0
				},
				{
					"attributes":{
						"POSITION":12,
						"NORMAL":13,
						"TEXCOORD_0":14
					},
					"indices":15,
					"material":1
				}
			]
		},
		{
			"name":"Plane.002",
			"primitives":[
				{
					"attributes":{
						"POSITION":16,
						"NORMAL":17,
						"TEXCOORD_0":18
					},
					"indices":19,
					"material":2
				}
			]
		},
		{
			"name":"Cube.027",
			"primitives":[
				{
					"attributes":{
						"POSITION":20,
						"NORMAL":21,
						"TEXCOORD_0":22
					},
					"indices":23
				}
			]
		},
		{
			"name":"Circle.089",
			"primitives":[
				{
					"attributes":{
						"POSITION":24,
						"NORMAL":25,
						"TEXCOORD_0":26
					},
					"indices":27,
					"material":3
				},
				{
					"attributes":{
						"POSITION":28,
						"NORMAL":29,
						"TEXCOORD_0":30
					},
					"indices":31,
					"material":4
				}
			]
		},
		{
			"name":"Circle.081",
			"primitives":[
				{
					"attributes":{
						"POSITION":32,
						"NORMAL":33,
						"TEXCOORD_0":34
					},
					"indices":35,
					"material":4
				}
			]
		},
		{
			"name":"Circle.074",
			"primitives":[
				{
					"attributes":{
						"POSITION":36,
						"NORMAL":37,
						"TEXCOORD_0":38
					},
					"indices":39,
					"material":4
				}
			]
		},
		{
			"name":"Circle.015",
			"primitives":[
				{
					"attributes":{
						"POSITION":40,
						"NORMAL":41,
						"TEXCOORD_0":42
					},
					"indices":43,
					"material":4
				}
			]
		},
		{
			"name":"Circle.113",
			"primitives":[
				{
					"attributes":{
						"POSITION":44,
						"NORMAL":45,
						"TEXCOORD_0":46
					},
					"indices":47,
					"material":0
				},
				{
					"attributes":{
						"POSITION":48,
						"NORMAL":49,
						"TEXCOORD_0":50
					},
					"indices":51,
					"material":5
				},
				{
					"attributes":{
						"POSITION":52,
						"NORMAL":53,
						"TEXCOORD_0":54
					},
					"indices":55,
					"material":1
				},
				{
					"attributes":{
						"POSITION":56,
						"NORMAL":57,
						"TEXCOORD_0":58
					},
					"indices":59,
					"material":6
				}
			]
		}
	],
	"accessors":[
		{
			"bufferView":0,
			"componentType":5126,
			"count":864,
			"max":[
				891.4159545898438,
				-78.78533935546875,
				-1052.58349609375
			],
			"min":[
				-1261.169189453125,
				-1273.455810546875,
				-1255.794921875
			],
			"type":"VEC3"
		},
		{
			"bufferView":1,
			"componentType":5126,
			"count":864,
			"type":"VEC3"
		},
		{
			"bufferView":2,
			"componentType":5126,
			"count":864,
			"type":"VEC2"
		},
		{
			"bufferView":3,
			"componentType":5123,
			"count":2592,
			"type":"SCALAR"
		},
		{
			"bufferView":4,
			"componentType":5126,
			"count":2040,
			"max":[
				1329.834228515625,
				1329.8792724609375,
				-578.17041015625
			],
			"min":[
				-1170.7630615234375,
				-303.5169982910156,
				-1010.9410400390625
			],
			"type":"VEC3"
		},
		{
			"bufferView":5,
			"componentType":5126,
			"count":2040,
			"type":"VEC3"
		},
		{
			"bufferView":6,
			"componentType":5126,
			"count":2040,
			"type":"VEC2"
		},
		{
			"bufferView":7,
			"componentType":5123,
			"count":6480,
			"type":"SCALAR"
		},
		{
			"bufferView":8,
			"componentType":5126,
			"count":1676,
			"max":[
				1320.2996826171875,
				201.72361755371094,
				-64.11709594726562
			],
			"min":[
				-1276.569580078125,
				-1320.2996826171875,
				-403.6465759277344
			],
			"type":"VEC3"
		},
		{
			"bufferView":9,
			"componentType":5126,
			"count":1676,
			"type":"VEC3"
		},
		{
			"bufferView":10,
			"componentType":5126,
			"count":1676,
			"type":"VEC2"
		},
		{
			"bufferView":11,
			"componentType":5123,
			"count":4800,
			"type":"SCALAR"
		},
		{
			"bufferView":12,
			"componentType":5126,
			"count":168,
			"max":[
				1297.7799072265625,
				199.4871063232422,
				-68.72724151611328
			],
			"min":[
				-1255.0062255859375,
				-1297.780029296875,
				-402.05010986328125
			],
			"type":"VEC3"
		},
		{
			"bufferView":13,
			"componentType":5126,
			"count":168,
			"type":"VEC3"
		},
		{
			"bufferView":14,
			"componentType":5126,
			"count":168,
			"type":"VEC2"
		},
		{
			"bufferView":15,
			"componentType":5123,
			"count":480,
			"type":"SCALAR"
		},
		{
			"bufferView":16,
			"componentType":5126,
			"count":1086,
			"max":[
				1337.324462890625,
				1338.24951171875,
				26.1164608001709
			],
			"min":[
				-1350.1031494140625,
				-1337.0609130859375,
				-1271.1651611328125
			],
			"type":"VEC3"
		},
		{
			"bufferView":17,
			"componentType":5126,
			"count":1086,
			"type":"VEC3"
		},
		{
			"bufferView":18,
			"componentType":5126,
			"count":1086,
			"type":"VEC2"
		},
		{
			"bufferView":19,
			"componentType":5123,
			"count":1572,
			"type":"SCALAR"
		},
		{
			"bufferView":20,
			"componentType":5126,
			"count":160,
			"max":[
				11.122406959533691,
				397.0960998535156,
				0.20482121407985687
			],
			"min":[
				-1570.0408935546875,
				-134.43392944335938,
				-109.44224548339844
			],
			"type":"VEC3"
		},
		{
			"bufferView":21,
			"componentType":5126,
			"count":160,
			"type":"VEC3"
		},
		{
			"bufferView":22,
			"componentType":5126,
			"count":160,
			"type":"VEC2"
		},
		{
			"bufferView":23,
			"componentType":5123,
			"count":282,
			"type":"SCALAR"
		},
		{
			"bufferView":24,
			"componentType":5126,
			"count":812,
			"max":[
				5.493969440460205,
				393.5955810546875,
				-1.088335284293862e-05
			],
			"min":[
				-1562.4605712890625,
				-128.3773956298828,
				-106.02105712890625
			],
			"type":"VEC3"
		},
		{
			"bufferView":25,
			"componentType":5126,
			"count":812,
			"type":"VEC3"
		},
		{
			"bufferView":26,
			"componentType":5126,
			"count":812,
			"type":"VEC2"
		},
		{
			"bufferView":27,
			"componentType":5123,
			"count":1776,
			"type":"SCALAR"
		},
		{
			"bufferView":28,
			"componentType":5126,
			"count":272,
			"max":[
				-10.923983573913574,
				390.9342346191406,
				-17.913694381713867
			],
			"min":[
				-1547.7711181640625,
				-123.75860595703125,
				-98.04747772216797
			],
			"type":"VEC3"
		},
		{
			"bufferView":29,
			"componentType":5126,
			"count":272,
			"type":"VEC3"
		},
		{
			"bufferView":30,
			"componentType":5126,
			"count":272,
			"type":"VEC2"
		},
		{
			"bufferView":31,
			"componentType":5123,
			"count":564,
			"type":"SCALAR"
		},
		{
			"bufferView":32,
			"componentType":5126,
			"count":68,
			"max":[
				910.5618286132812,
				-81.02046966552734,
				-1088.4327392578125
			],
			"min":[
				-1265.698486328125,
				-1262.6077880859375,
				-1237.0760498046875
			],
			"type":"VEC3"
		},
		{
			"bufferView":33,
			"componentType":5126,
			"count":68,
			"type":"VEC3"
		},
		{
			"bufferView":34,
			"componentType":5126,
			"count":68,
			"type":"VEC2"
		},
		{
			"bufferView":35,
			"componentType":5123,
			"count":168,
			"type":"SCALAR"
		},
		{
			"bufferView":36,
			"componentType":5126,
			"count":120,
			"max":[
				1308.5224609375,
				1308.5224609375,
				-616.1944580078125
			],
			"min":[
				-1153.1988525390625,
				-253.6447296142578,
				-972.1433715820312
			],
			"type":"VEC3"
		},
		{
			"bufferView":37,
			"componentType":5126,
			"count":120,
			"type":"VEC3"
		},
		{
			"bufferView":38,
			"componentType":5126,
			"count":120,
			"type":"VEC2"
		},
		{
			"bufferView":39,
			"componentType":5123,
			"count":324,
			"type":"SCALAR"
		},
		{
			"bufferView":40,
			"componentType":5126,
			"count":128,
			"max":[
				1300.9720458984375,
				195.6324462890625,
				-69.1395034790039
			],
			"min":[
				-1263.2381591796875,
				-1301.892333984375,
				-390.3968811035156
			],
			"type":"VEC3"
		},
		{
			"bufferView":41,
			"componentType":5126,
			"count":128,
			"type":"VEC3"
		},
		{
			"bufferView":42,
			"componentType":5126,
			"count":128,
			"type":"VEC2"
		},
		{
			"bufferView":43,
			"componentType":5123,
			"count":372,
			"type":"SCALAR"
		},
		{
			"bufferView":44,
			"componentType":5126,
			"count":629,
			"max":[
				1272.4130859375,
				1214.5782470703125,
				-77.9781723022461
			],
			"min":[
				-1295.55908203125,
				-1302.34716796875,
				-1218.0968017578125
			],
			"type":"VEC3"
		},
		{
			"bufferView":45,
			"componentType":5126,
			"count":629,
			"type":"VEC3"
		},
		{
			"bufferView":46,
			"componentType":5126,
			"count":629,
			"type":"VEC2"
		},
		{
			"bufferView":47,
			"componentType":5123,
			"count":1818,
			"type":"SCALAR"
		},
		{
			"bufferView":48,
			"componentType":5126,
			"count":3713,
			"max":[
				1274.7041015625,
				1274.7041015625,
				4.070523738861084
			],
			"min":[
				-1295.55908203125,
				-1302.34716796875,
				-1232.0635986328125
			],
			"type":"VEC3"
		},
		{
			"bufferView":49,
			"componentType":5126,
			"count":3713,
			"type":"VEC3"
		},
		{
			"bufferView":50,
			"componentType":5126,
			"count":3713,
			"type":"VEC2"
		},
		{
			"bufferView":51,
			"componentType":5123,
			"count":9669,
			"type":"SCALAR"
		},
		{
			"bufferView":52,
			"componentType":5126,
			"count":1907,
			"max":[
				1256.061279296875,
				1214.5782470703125,
				4.070523738861084
			],
			"min":[
				-1289.1787109375,
				-1295.8970947265625,
				-1232.0635986328125
			],
			"type":"VEC3"
		},
		{
			"bufferView":53,
			"componentType":5126,
			"count":1907,
			"type":"VEC3"
		},
		{
			"bufferView":54,
			"componentType":5126,
			"count":1907,
			"type":"VEC2"
		},
		{
			"bufferView":55,
			"componentType":5123,
			"count":4701,
			"type":"SCALAR"
		},
		{
			"bufferView":56,
			"componentType":5126,
			"count":1021,
			"max":[
				1274.7041015625,
				1274.7041015625,
				-555.939208984375
			],
			"min":[
				-1274.7041015625,
				-1274.7041015625,
				-1229.4095458984375
			],
			"type":"VEC3"
		},
		{
			"bufferView":57,
			"componentType":5126,
			"count":1021,
			"type":"VEC3"
		},
		{
			"bufferView":58,
			"componentType":5126,
			"count":1021,
			"type":"VEC2"
		},
		{
			"bufferView":59,
			"componentType":5123,
			"count":3378,
			"type":"SCALAR"
		}
	],
	"bufferViews":[
		{
			"buffer":0,
			"byteLength":10368,
			"byteOffset":0,
			"target":34962
		},
		{
			"buffer":0,
			"byteLength":10368,
			"byteOffset":10368,
			"target":34962
		},
		{
			"buffer":0,
			"byteLength":6912,
			"byteOffset":20736,
			"target":34962
		},
		{
			"buffer":0,
			"byteLength":5184,
			"byteOffset":27648,
			"target":34963
		},
		{
			"buffer":0,
			"byteLength":24480,
			"byteOffset":32832,
			"target":34962
		},
		{
			"buffer":0,
			"byteLength":24480,
			"byteOffset":57312,
			"target":34962
		},
		{
			"buffer":0,
			"byteLength":16320,
			"byteOffset":81792,
			"target":34962
		},
		{
			"buffer":0,
			"byteLength":12960,
			"byteOffset":98112,
			"target":34963
		},
		{
			"buffer":0,
			"byteLength":20112,
			"byteOffset":111072,
			"target":34962
		},
		{
			"buffer":0,
			"byteLength":20112,
			"byteOffset":131184,
			"target":34962
		},
		{
			"buffer":0,
			"byteLength":13408,
			"byteOffset":151296,
			"target":34962
		},
		{
			"buffer":0,
			"byteLength":9600,
			"byteOffset":164704,
			"target":34963
		},
		{
			"buffer":0,
			"byteLength":2016,
			"byteOffset":174304,
			"target":34962
		},
		{
			"buffer":0,
			"byteLength":2016,
			"byteOffset":176320,
			"target":34962
		},
		{
			"buffer":0,
			"byteLength":1344,
			"byteOffset":178336,
			"target":34962
		},
		{
			"buffer":0,
			"byteLength":960,
			"byteOffset":179680,
			"target":34963
		},
		{
			"buffer":0,
			"byteLength":13032,
			"byteOffset":180640,
			"target":34962
		},
		{
			"buffer":0,
			"byteLength":13032,
			"byteOffset":193672,
			"target":34962
		},
		{
			"buffer":0,
			"byteLength":8688,
			"byteOffset":206704,
			"target":34962
		},
		{
			"buffer":0,
			"byteLength":3144,
			"byteOffset":215392,
			"target":34963
		},
		{
			"buffer":0,
			"byteLength":1920,
			"byteOffset":218536,
			"target":34962
		},
		{
			"buffer":0,
			"byteLength":1920,
			"byteOffset":220456,
			"target":34962
		},
		{
			"buffer":0,
			"byteLength":1280,
			"byteOffset":222376,
			"target":34962
		},
		{
			"buffer":0,
			"byteLength":564,
			"byteOffset":223656,
			"target":34963
		},
		{
			"buffer":0,
			"byteLength":9744,
			"byteOffset":224220,
			"target":34962
		},
		{
			"buffer":0,
			"byteLength":9744,
			"byteOffset":233964,
			"target":34962
		},
		{
			"buffer":0,
			"byteLength":6496,
			"byteOffset":243708,
			"target":34962
		},
		{
			"buffer":0,
			"byteLength":3552,
			"byteOffset":250204,
			"target":34963
		},
		{
			"buffer":0,
			"byteLength":3264,
			"byteOffset":253756,
			"target":34962
		},
		{
			"buffer":0,
			"byteLength":3264,
			"byteOffset":257020,
			"target":34962
		},
		{
			"buffer":0,
			"byteLength":2176,
			"byteOffset":260284,
			"target":34962
		},
		{
			"buffer":0,
			"byteLength":1128,
			"byteOffset":262460,
			"target":34963
		},
		{
			"buffer":0,
			"byteLength":816,
			"byteOffset":263588,
			"target":34962
		},
		{
			"buffer":0,
			"byteLength":816,
			"byteOffset":264404,
			"target":34962
		},
		{
			"buffer":0,
			"byteLength":544,
			"byteOffset":265220,
			"target":34962
		},
		{
			"buffer":0,
			"byteLength":336,
			"byteOffset":265764,
			"target":34963
		},
		{
			"buffer":0,
			"byteLength":1440,
			"byteOffset":266100,
			"target":34962
		},
		{
			"buffer":0,
			"byteLength":1440,
			"byteOffset":267540,
			"target":34962
		},
		{
			"buffer":0,
			"byteLength":960,
			"byteOffset":268980,
			"target":34962
		},
		{
			"buffer":0,
			"byteLength":648,
			"byteOffset":269940,
			"target":34963
		},
		{
			"buffer":0,
			"byteLength":1536,
			"byteOffset":270588,
			"target":34962
		},
		{
			"buffer":0,
			"byteLength":1536,
			"byteOffset":272124,
			"target":34962
		},
		{
			"buffer":0,
			"byteLength":1024,
			"byteOffset":273660,
			"target":34962
		},
		{
			"buffer":0,
			"byteLength":744,
			"byteOffset":274684,
			"target":34963
		},
		{
			"buffer":0,
			"byteLength":7548,
			"byteOffset":275428,
			"target":34962
		},
		{
			"buffer":0,
			"byteLength":7548,
			"byteOffset":282976,
			"target":34962
		},
		{
			"buffer":0,
			"byteLength":5032,
			"byteOffset":290524,
			"target":34962
		},
		{
			"buffer":0,
			"byteLength":3636,
			"byteOffset":295556,
			"target":34963
		},
		{
			"buffer":0,
			"byteLength":44556,
			"byteOffset":299192,
			"target":34962
		},
		{
			"buffer":0,
			"byteLength":44556,
			"byteOffset":343748,
			"target":34962
		},
		{
			"buffer":0,
			"byteLength":29704,
			"byteOffset":388304,
			"target":34962
		},
		{
			"buffer":0,
			"byteLength":19338,
			"byteOffset":418008,
			"target":34963
		},
		{
			"buffer":0,
			"byteLength":22884,
			"byteOffset":437348,
			"target":34962
		},
		{
			"buffer":0,
			"byteLength":22884,
			"byteOffset":460232,
			"target":34962
		},
		{
			"buffer":0,
			"byteLength":15256,
			"byteOffset":483116,
			"target":34962
		},
		{
			"buffer":0,
			"byteLength":9402,
			"byteOffset":498372,
			"target":34963
		},
		{
			"buffer":0,
			"byteLength":12252,
			"byteOffset":507776,
			"target":34962
		},
		{
			"buffer":0,
			"byteLength":12252,
			"byteOffset":520028,
			"target":34962
		},
		{
			"buffer":0,
			"byteLength":8168,
			"byteOffset":532280,
			"target":34962
		},
		{
			"buffer":0,
			"byteLength":6756,
			"byteOffset":540448,
			"target":34963
		}
	],
	"buffers":[
		{
			"byteLength":547204,
			"uri":"data:application/octet-stream;base64,"
		}
	]
}
